<svg width="800" height="316" xmlns="http://www.w3.org/2000/svg"><g transform="translate(0, 0)" id="single_state_map"><path d="M712.1099729242478,47.781368329385714L712.3085551560771,49.1473216102454L712.4213236703963,49.97536971445015L712.5904383701245,51.36912808275838L713.0626041751775,55.115341220557184L713.2746638054114,56.69223235088748L713.3233194979484,56.991468528404766L713.49547993743,58.36620906193639L713.9771636792075,62.323077717828255L714.525168404085,66.64894426104183L715.1584538420184,71.36091116860553L715.1572355461176,71.41114182557249L715.3016036103627,72.30598332619002L715.372569346584,72.9090290535787L715.3871127539005,72.99785801919597L715.4240423483934,73.25697572749323L715.6211778538409,74.79053979495302L715.663285205912,75.05922049974288L716.0184946044883,77.61879414877376L716.0895364842036,78.12207484243481L716.3066977285207,79.6963155842518L716.4314207713642,80.6053364562963L717.44367237794,87.56419388643326L717.455550762973,87.65934753843749L718.3685873971272,94.20072857839432L718.4349845237202,94.68349463682762L718.5268135772421,95.23634509257909L718.6467395799773,96.07881226203926L718.9334959776279,98.12980886443529L718.9443844972411,98.16640513752418L719.212561882403,100.04188741124017L719.2351003565691,100.19961403998241L719.3442901266772,100.94474950870881L719.3653057309675,101.06089099458995L719.363478287114,101.06963679820183L719.363478287114,101.12126504212438L719.750820240075,104.16603912296978L720.507686568445,109.4249858212338L720.6591359776139,110.57776480563052L720.7508127441497,111.25950461455477L720.8594695098009,112.11959679248776L721.0002588298366,113.13178474887354L721.0305639403687,113.37683000497645L721.0486860918945,113.4874263377792L721.1156162229436,114.02555079355216L721.161454606211,114.34942066362873L721.5037957543345,116.71061726341986L721.5941780814746,117.31222424530279L721.9864693615327,120.37552960859557L722.0340590451578,120.66563976572388L723.17149055554,128.87663074889588L723.7330488223133,133.04649884583887L723.795105769761,133.5266634956738L723.8225174275285,133.680594326147L723.8818332091978,134.11175236398913L724.9190598817395,142.15371400695358L726.326267790655,151.72731831666442L726.120680357395,152.37170107504562L726.2143368547686,152.98670409071792L726.1587521042957,153.4083514111312L726.3034247425148,154.03400827584028L726.2653529956142,154.2394365164555L726.2805816943746,154.6596132072582L726.1054516586346,159.9236566355794L726.0251202726758,161.32300654812707L726.0167444883582,161.69698715168488L726.0140033225807,162.77824569989252L725.9843073599995,162.929900541626L725.9762361496569,163.2066208112742L725.9166157940117,165.18412495060056L725.8417667396061,165.91993847967706L725.8268426148215,166.1931931088884L725.8417667396061,166.97020408268645L725.7908267422536,168.82911310277268L725.7738467431373,169.05324370676044L725.727094637944,170.10521753564808L725.7292266557706,170.4509047143515L725.7441507805543,171.0476671275942L725.6947336530784,172.48007764388967L725.6916117698338,172.73809886640674L725.599935003298,176.48456415607643L725.5635384132611,177.33005875421986L724.9527914494929,198.14029512144316L724.9655074129578,198.29969296142826L724.9676394307844,198.63351713016846L724.9240853523306,200.0539631357724L724.890962932528,201.34562190317138L724.8852521704921,201.5906950014455L724.8781708255692,201.89514630471103L724.322551751311,221.58328210723994L724.3248360561256,222.32514312750163L724.1305178599487,230.3791989698043L724.1300609989858,230.6200173396801L724.0469884472495,234.11422499201626L723.8549545558872,242.22943515243196L723.843913749286,242.70201745968097L723.8165020915176,243.7866321368424L723.7213988677622,247.76910636970797L723.6892663133794,248.45855378873694L723.0002438379843,278.852764100955L723.0002438379843,278.85634700345736L723.0003199814773,279.0568950491879L722.8433120972622,284.7771874167656L722.8371444742652,285.10095789043226L722.8105703949286,286.5768030391787L722.699781611449,291.739838613903L722.6882078003919,291.76625331873765L722.615110046343,294.50510279639184L722.5679010801878,296.4452942025341L722.5084330115315,298.94536457260983L722.5079761505667,298.9671733287614L722.494118034695,299.6021664018549L722.4713511300497,300.21704360026024L722.4073905952582,303.21441817830146L722.4001569633465,303.4569281119857L722.3936847663745,303.71866192463176L722.3930756184227,303.73844271193957L722.3166275506483,306.8359937840446L722.3192164294369,307.33039388992574L722.2601290782486,309.1371018816103L722.2674388536534,309.4741433503891L722.190686211904,311.7177595251883L722.1869551807067,312.63968834501384L722.1642644195554,314.052194409659L722.039465233217,314.8686853514678L721.7357288364492,315.21837512009915L720.737335345746,315.6237361199228L719.5106636606306,316L719.0868489741406,315.75897373592943L718.8860585809907,315.51784865839863L718.8191284499399,315.00887403959587L718.9306786683574,314.7945205941942L718.8637485373065,314.3658876577697L718.551484069234,314.07112610571585L718.1275932392509,314.0443290539547L717.7483986401267,314.2319065016318L717.34689399732,314.2319065016318L717.0791734731201,314.017531911019L717.0122433420693,313.66925221715974L717.1816626157752,313.43913039713334L717.1907236915376,312.91895347239324L717.1237935604868,312.6241377519632L716.7445989613634,312.32940246823364L716.1646139690902,312.40971938424946L715.8522733575237,312.51692929812634L715.6961791952335,312.49012695653755L715.5846289768169,312.3025994881559L715.6069390204993,312.06136856045305L715.8076532701562,311.71291083456117L715.7630331827895,311.4449474194703L715.5400088894494,311.12326948724785L715.227668277882,310.8016699001387L715.0261925932882,310.4153670445867L714.4915891233195,310.29229879251716L714.2015585554354,310.42634701814177L713.9561480749189,310.7480534416968L713.7108137378955,310.98923313447176L713.2423789640388,310.98923313447176L712.907728308789,310.90881022688654L712.5954638407165,310.66762806898305L712.1938830544159,310.23867886274184L711.8593085426583,310.10471894285365L711.3685637251192,310.3995375557338L711.145463288286,310.8016699001387L710.788578732846,311.12326948724785L710.2085937405727,311.25730355699443L709.9631832600553,311.176883389101L709.7847029105887,310.8016699001387L709.8293229979554,310.15833978567343L709.7847029105887,309.7829862103681L709.6955388793485,309.46133182905896L709.4947484861987,309.19320020105033L708.9692060919915,309.08713468918813L707.0180290633707,309.7995489959658L705.2617032353837,309.56867343059093L705.0919032442098,309.45208921856874L705.0433998386598,309.13142796731427L705.0433998386598,308.7233529772525L705.1404066497607,308.4026620098757L705.0191862076317,307.848743722383L704.7281657743288,307.7030270747391L704.4128555665029,307.6155225637481L704.194552169779,307.7030270747391L704.0248283220981,307.848743722383L703.903531736476,308.14035196814575L703.7095181142731,308.4026620098757L703.3942079064491,308.3443614764137L703.0304704365662,307.9362456375279L702.8849602199161,307.4406021540731L703.0061806620442,306.8867076128713L702.8606704453941,306.30347882275737L702.6181534176403,305.89525699998694L701.8178091543114,305.66197786448583L701.3569887298336,305.66197786448583L701.0659682965297,305.45780716024456L700.7021546831547,304.93289013651565L700.6779410521276,304.4662677774627L700.8234512687777,303.97040535603264L700.7991614942566,303.70794731069964L700.6779410521276,303.4745116225895L700.4596376554027,303.3870515843214L700.1444035910708,303.32871382345184L699.028749119916,304.14540303749163L698.3497014422082,304.29127724558657L697.5493571788793,303.8537380685616L697.3310537821553,303.6203982935308L696.9187367632285,303.5911845444507L696.5792129243746,303.70794731069964L696.3609095276506,303.8537380685616L696.2639027165505,304.3496078560893L696.1183924998977,304.5829259660827L695.9001652466677,304.69958242205803L695.0755312088158,304.7579100003386L694.4921197593221,304.7438088672661L692.9689453093497,304.16820464604416L692.5602070346313,303.86665031048324L692.3765489275856,303.5867887358072L692.4970840782717,303.28795955751L692.4562711655944,302.80365446853466L692.2137541378424,302.42437729708035L692.0439541466685,302.3660323821264L691.6801405332926,302.4535037956348L691.5170411695735,302.21114605358935L690.4580374578054,301.3822553214759L690.1558239309143,301.2079288888058L689.7612483460425,301.1904319074006L689.1378615623034,300.46468503939377L689.1005512503425,300.16509562498595L689.1378615623034,299.74565122185504L689.3370529420836,299.071542964964L689.3495404750674,298.7868369172543L689.2748437076489,298.41231405604185L689.1503490952873,298.2774191304379L688.9636452484892,298.1275840705075L688.7644538687082,298.0376816600142L688.4656667990384,298.05271128868526L688.1668797293678,298.2025477795305L687.905402971659,298.2624815740701L687.6191034349722,298.2474523475307L687.2580309873729,298.0976167148924L686.9219336057395,297.5582763741363L686.8597243713057,296.8539162470929L686.2396879012931,296.00181709672233L685.7276229054905,295.8169206124908L685.6143975302093,294.77171966209244L685.3854340443531,293.62615637053295L685.192029570102,293.51547878070005L685.0415700263538,293.5514239524173L684.8285966741951,293.72417854681L684.4142237809356,294.41763435087887L684.2883585856853,294.50290234433305L683.8936307138265,294.5353589495189L683.5750463357681,294.4019559413646L683.357808947957,293.94506780223446L683.0000106705911,293.48045041889054L682.3792127656416,293.15179972656097L681.7665622145278,293.5825090571461L681.3170871706279,293.7272961637136L680.183919695899,293.6872255224953L679.4711404504387,293.47494856771664L679.2840558861717,293.3351085524514L678.5371643554881,291.25115049108854L678.3672882208211,290.47338736413167L678.0302009737698,290.0795688563785L677.5910053015323,289.8949911408531L677.0088882914315,290.19038678392826L676.6207849035345,290.6579514327236L676.1304969469575,290.6579514327236L675.8649084405833,290.41183446248624L675.7628000153982,290.1042461632078L675.7832064717368,289.59967608438455L675.5176941088557,289.13204816803136L675.3440107994984,288.9228588825026L675.1499971772964,288.787433360917L674.5678040237035,288.8489990480134L673.8835024449245,288.5905300104064L673.6996920508909,288.3320524282303L673.6894126792286,288.04897434556597L673.789617517069,287.1689351947675L673.5218969928674,286.8598426674125L673.0379289462762,286.6533458954618L671.6364317993957,286.7074026887781L670.7495885271101,286.59157935640224L670.3249362621882,286.3960891724223L670.1680806649601,286.2237233474207L669.0008770485019,285.4208596798885L666.3143061567625,284.39143597718294L665.7786366778801,284.3559076969341L665.4666006402886,284.46515434797266L663.7598442267663,286.9540951581439L663.7052493417104,287.3154929077359L663.7511638684709,287.54243627936467L663.8800748034746,287.8252574133562L663.9249994648171,288.47418404122664L663.913730227735,288.8391816013336L663.7454531064368,289.5420612847943L663.5435205608792,289.771875750012L663.1396554697658,290.04213993014264L662.9265298306191,290.1097503845963L662.2646905825113,289.85297433259757L662.0514887998725,289.87994584680746L661.8608254913979,289.9610433088815L661.7149345572761,290.12323571062643L661.6700860394285,290.3395481712537L661.5803128602383,291.17740436282975L661.5691197666492,291.60987329887485L661.4344980696123,292.08276425354234L661.0979438270169,292.339558851952L660.570726275947,292.2990225503577L658.2268011063061,291.3528713110527L657.6267903751632,291.2994886831352L657.5452406933027,291.3451666243568L657.5200371968549,292.166681986585L657.1950567653175,292.89649904270755L656.1887443512587,292.9959059021835L654.4454390607116,292.95427255562345L651.9660546156019,293.13171710808683L648.9526758484708,292.8986082419474L647.7362073915256,292.5810298008064L647.6703432693876,292.4839104020548L647.8768444245743,291.53796495643155L647.769405954823,291.3346185290784L647.6159768148154,291.26068974049167L647.2324420365467,291.3160905359905L646.576618124448,291.9401479000967L645.5522597023582,292.35093098934794L644.7698091600714,292.35826784341816L644.481910610014,292.20712726117927L644.4506917775552,292.00544908672964L644.4705652294369,291.29765422209493L644.179011791678,290.9464387325311L643.78009602766,290.8540689169845L643.4118660916447,291.0203704903329L643.0171382197868,291.3727750499029L642.410959865646,291.7694634330419L641.9154941514907,291.88484323865305L641.5037862805148,291.8490738465098L641.2656094319082,291.62436495115344L640.9793098952205,291.10356581417136L640.9605785957474,290.5533778926947L641.1780444140386,289.92122859659867L641.2031717669925,289.31214832003616L641.0506563489116,288.705130932643L640.6115368201681,287.56234971809954L640.4212542291616,287.2724527623386L640.2999576435386,287.1464511446861L640.115918819025,287.08762522194684L638.4010911951591,286.8777387973828L637.3554125948058,286.8991223245821L637.0524376329749,287.54629049727146L634.5152602760709,289.43481222331866L633.7313630074013,289.4932535110329L632.7761428776821,289.20737329046233L632.3558307919066,289.29545046714884L632.0025249806758,289.50536373894874L631.4735561292491,290.2949651763752L630.8715656672666,290.9375411910087L629.9478689439811,291.3974482780154L628.8882560842621,291.45853482030725L628.6855621037676,291.4060701312078L627.5503387547051,290.61905757759223L626.860554844372,290.41146752868553L626.1122927308006,290.430823263237L625.4245646948011,290.718034720368L625.274029007559,290.9027764730081L625.002044447705,291.5640134629298L624.953084181192,292.39265925519294L625.0866398693161,292.7096033929806L625.3414921430658,292.9804997556971L625.6418782261062,294.0343753462339L625.5811918615473,294.26103221998073L625.2990040735249,294.6197088198742L624.8721436472833,294.8146268930677L624.2291118421426,295.1939055914486L624.1365974971768,295.19234707503165L623.9102228901093,295.0721570220185L623.0242171962545,294.04611178553523L622.8737576525054,293.92232814169347L622.0380828080524,293.59901437232884L621.7101327802575,293.5905783266935L620.5339442315308,293.8508995042939L620.4524706931652,294.0188795517729L620.4524706931652,294.1279912984369L620.5277766085328,294.5581885149609L620.6154939133903,294.7701610616723L620.6572966914864,295.1353234964222L620.6282098768552,295.28851612497374L620.5196292546962,295.492126585541L620.3671138366144,295.65787131077013L619.9515226474559,295.9055651333074L619.6695632899145,295.98742521165923L619.2455963164375,295.94351604865005L619.0555421559129,295.8659639821799L618.7691664757313,295.6401785952203L618.3053764549968,295.08985102048746L617.5740181970486,294.4018642546662L615.9123387318541,293.65265640638427L615.44032521379,293.35656613340643L614.997550797344,292.96179225134165L614.0810115624745,292.2769200893299L613.2725199453089,291.77074747839515L612.7584752186649,291.53136109593606L611.8077475550799,291.2247340474278L611.7366295318716,291.2499580840954L611.6551559935051,291.4493626972362L611.6844712386182,291.657200367782L611.7743205613024,291.8420116651464L611.7993717707623,291.9930675833716L611.7980773313675,292.3255270790023L611.6986339284649,292.7367484748261L611.3456326912101,293.5616939711713L611.115907770416,293.7274795529056L610.5581566783303,293.9836700586534L608.9936363112265,294.04290260465996L608.3228121308493,293.7736934921022L608.0724523232348,293.3064066535039L607.7219638212755,293.0802723572556L607.5217064325807,293.0802723572556L607.3589877863305,293.1406121555033L607.1211155117007,293.3064066535039L607.0460380268141,293.62294701754126L607.071089236274,294.12038103265377L607.0479416141579,294.42698636968L606.999057491139,294.5308663765941L606.4702409266984,295.03915256573555L605.3811605348801,295.49194323766324L605.2434930980899,295.37139107983694L605.1933906791692,295.2508370668552L605.1597352549097,294.98185283217754L605.2059543556461,294.70827520607463L605.1809031461862,294.5424187017629L604.9555945480324,294.43698018134955L604.6300811120373,294.406815334803L604.4924136752479,294.5575467208573L604.0416441919524,295.4296963855295L603.1551054936417,295.8676140341395L602.6583453400917,295.70315714679055L602.0061001722015,295.4042107864266L600.4297775635578,294.9336290515903L599.2519138579682,294.81306830118547L599.1469881235116,294.92876998499014L599.1564299167421,295.019349825217L599.199374847246,295.1560427225131L599.3236410291274,295.32298634543804L599.4389984222335,295.73313365944387L599.453465686056,296.21072562341305L599.3078793259101,296.4174286661705L598.9488627526443,296.3935962209275L598.4982455563368,296.2408835245951L597.8756963510295,295.7378088850228L597.5115781636778,295.5471307547891L596.2967848635963,295.62092740855996L595.5989297429196,295.74560092145566L595.4407797062968,295.9237155940132L595.3278589049933,296.28213274555355L595.5439541403957,297.45067880602573L595.3937230271285,297.6532249605184L594.3694407485345,297.65194187917814L593.4806177454084,297.86951281336997L593.4029513817322,297.9330233248884L593.246552645468,298.242870260538L593.3702096793986,298.7410190788355L593.5369639308201,299.0311331125804L593.6987688551444,299.15859295995597L593.900701400702,299.26653361182616L594.1699447947785,299.4015947798616L594.5288852245512,299.56359181034486L594.4806102494822,300.2389404391565L593.9708295584915,301.9463392248572L593.5763301171146,302.5354787381757L593.3154625073557,302.82682632671913L592.6686235275256,303.2062672233824L591.6524124592734,303.5962214054962L590.0822574736267,304.0291046466714L589.4348854893415,303.9713211049666L587.97224511694,302.9671382520696L586.3226724672595,302.1044366629003L585.7612664874732,301.98261215147704L584.6028955162956,302.2863455339043L584.4212932835844,302.43729188996485L583.9005479294874,303.44612155988943L583.8013329570649,303.7096872917341L583.5659734177298,304.61405894172367L583.467824454222,305.1631694095131L583.528206244805,305.91567317243107L583.4947792510275,306.53811208948173L583.2717549576873,307.40755814403474L582.7417200973468,308.45940622701346L582.6019967862248,308.6647802608095L582.4235925802514,308.81606171323256L580.7817865669385,309.55961396583643L580.3522611184144,309.61415361618674L579.7705248257835,309.54314218499985L579.2944757025452,309.1164195291144L579.2231292488559,308.8970551240932L579.2141443165874,308.27150808288616L578.9330225374779,307.3404628154053L578.7316229963781,306.82903662676745L577.6255626054408,305.60850945743186L576.1490641171677,304.1299272092365L575.7712401009339,303.6809317662255L575.3951673850552,303.0836355431725L575.1866864990325,302.31565573305215L575.0788673118113,302.0464557590699L574.8961990701855,301.6804242420226L574.6919822198151,301.40497335222153L574.1154998282555,301.1656062804459L573.6402882834518,301.0377209945809L572.7577851903116,300.9478519356662L572.5700914780946,300.9884351345818L572.1327232497079,301.405522981182L571.9119071176883,301.4790813098339L569.8631902735106,301.6826226804701L568.7813435136013,301.72173646157216L568.6276859431136,301.64140185709175L567.8945763848087,300.9069020842694L567.5901546965961,300.3281762969723L567.5865759523886,299.3075836565599L567.5389862687643,298.9196155009222L567.2856568648922,298.17010636018085L566.984737777394,297.54993624065446L566.7721451427051,297.29542042736693L566.5757710721955,297.1821366945678L566.2992940462073,297.1016639220825L564.90145178703,297.4569110734351L563.7535886179976,297.5135511589224L563.248071962661,297.4597522525214L562.1721643952687,296.64300833683865L561.7260396650954,296.37654681178356L561.0916120747543,296.0638760690349L559.4242979910196,295.4078777842101L558.9571576565577,295.0407111126324L558.9014206190968,294.8524914123486L558.9223600798914,294.5476447480264L558.9815997180676,294.4063569015889L559.2534319909328,294.0272234449085L560.2759629691718,292.88338531294175L561.0590226594095,292.53425856939157L561.389333135513,292.3253436569689L561.940307456648,291.81504691404507L562.1396511234152,291.4861428458739L562.3021413391853,291.0553181376458L562.2951361377554,290.8413186780431L562.1061479861437,290.5199874504028L561.7243645082308,290.4436659042817L560.6116034898414,290.52448232593633L559.0329965763822,290.5481491790001L558.894186987186,290.4614621005953L557.8332796880732,289.49453793003477L556.6267098853195,288.5124462742001L556.2829981543073,288.4573008860816L556.0715476720252,288.48730516379874L555.8102993447974,288.6732006603397L555.59473711385,288.9150600509347L555.4533386458634,289.2053548435356L555.0238131973383,290.3897266702079L554.8321600234449,291.4892613542679L554.9357913185067,292.18374056326047L554.9277201081641,292.43768884855854L554.7359907907767,293.44377133803846L554.4722297282533,294.20409354951335L554.280576554359,294.63080259392245L553.6054883383295,295.63101136937576L553.2336796581048,296.00025874101584L552.9537000314031,296.1800176108477L552.6271967299881,296.3108237423098L550.0675570424137,296.85474116910655L549.4581806615333,296.95015656271744L548.8835257138253,296.97325406261643L548.5296868981386,296.8768307151522L548.2903678971243,296.69177155674333L548.1915336421725,296.49525026144374L547.7278197649321,295.3626819167366L547.6946212016346,294.7955570416534L547.5129428254277,293.8991299522072L547.4382460580109,293.70116316008944L547.2162116300906,293.38609313584766L546.3945471884972,292.8953068863643L544.9857402662119,292.5504909696042L543.5101554998646,292.34973874991465L543.1099452964527,292.66943583565717L542.9298659336164,292.94024188454387L542.8506005565705,293.37591458547286L542.7917416358623,294.3617053778921L542.4640200385484,294.72101914816767L542.1063740481695,294.88274622355584L541.6878132627535,294.8571671635332L540.8998803889117,294.33832511506444L540.226543473239,293.66384324580577L539.638030409661,292.97481414635604L538.669637455514,290.37046256790654L538.5580110936035,289.770499635586L538.6132151266092,288.819638423126L538.3868405195417,286.94675323279534L538.1590191860932,286.1859088239835L537.9443706770708,285.7085306184099L537.7818804613016,285.4509674090882L537.4811898042863,285.08975879560376L537.1032135010637,284.73743808941936L536.9267128824367,284.6338869287283L536.6605152281127,284.5739404609026L536.4965021424678,284.61249720051046L535.8885724879683,284.93113382647516L534.9475150480966,285.52513473479667L534.3610578588496,285.9505735500138L532.820751122772,286.75705384519506L532.7244296031167,286.76604792111584L532.4847298846344,286.6048871958269L532.2667310618863,286.22537543408043L532.1743690039057,285.5303668091551L532.2013999442051,285.2867503667485L532.3025946474645,284.9823568249212L532.2974168898872,284.8861527802178L532.1510690948044,284.86779309505664L531.6519484929449,285.0244916202255L531.427858190692,285.20532901026354L531.1649347066023,285.52614443363154L531.0826997332979,285.70091215640105L531.0206427858502,286.2125258619817L531.1089692386586,287.1021252565006L531.1870924632976,287.3825763291484L531.5869980927346,288.34710070064875L531.8768002301367,289.59508893436123L531.9505071321346,290.767752145382L531.8289821160297,291.27784201545774L529.3703087012327,294.61402440063466L528.9102497116937,295.1576012461546L527.7712191879418,295.70297380385455L527.5894646682418,295.74908441758953L527.019226043175,295.4581154809989L526.7546274022206,295.3845923191293L526.5104352176049,295.43363839525136L526.3476404278608,295.53163795285263L526.2662430329892,295.75210955771263L526.3273101150162,296.04618427029845L526.4901049047594,296.38910471351574L526.5308416739426,296.85455785311024L526.5104352176049,297.0260480924885L526.2662430329892,297.49146340727475L525.9609837663456,297.7364415017364L525.5539967919849,297.8833513669374L524.7458858922873,298.04098084926545L524.0294517591246,298.4083735442491L523.7162735691254,298.8344871852205L523.5138080191118,299.3444185584385L523.4784012944956,299.7472088332129L523.5788345628162,300.2130123763959L524.0406448527128,301.58286791588216L524.2412068153817,302.36942134509354L524.2872736291301,302.87491000394266L524.281182149627,303.5018941987187L524.1668146219381,304.34567032458926L523.7954628026782,305.1530976938079L523.5660424558573,305.53059508269007L523.3323580733859,305.82201468922676L522.7711043805884,306.29816905403686L522.435235429436,306.5100077327256L522.1056102447774,306.6464090455661L521.5088736838679,306.7956238777151L521.1281562148679,306.81695312843794L520.2579883677236,306.6592251546326L519.3546219572818,306.3568509538918L518.92273606045,306.1302686547633L518.3072682000657,305.68349330232377L517.6187025856334,304.9306010442506L516.8838417269708,303.2525169115561L516.4308640823556,301.98563488779564L516.2325102810073,300.9366754873631L515.8983164867204,300.5527273374096L515.2549039641108,299.45336455667666L515.0877689952204,299.0735588705129L515.0709412830911,298.3096768237847L515.1209675585178,297.4806486348102L515.2337360728352,297.2098162043826L515.5241473581873,296.70597882877155L515.6934143449043,296.479301022197L515.8187465356996,296.3869047905796L515.9817697559238,296.3407062662236L516.5479727758202,296.378563410497L516.9198575995379,296.3344731111333L517.6617236596303,295.97147493873126L518.0274408603509,295.5076194656149L518.0422888416424,294.8735781112873L517.0539462921197,290.75243334146217L516.9598329337832,290.4814598398989L516.6085829968852,289.97728104810767L515.0337071146223,288.73137238065783L514.6697412142594,288.5676830284606L513.4818265674876,288.69815766591273L512.2962723690252,289.46563845148194L512.0789588377202,289.7578393715089L511.98499776637163,290.00993990175857L511.75435912365174,292.3253436569689L511.371661923813,293.2220426352933L511.2649848889996,293.3710545522463L511.1896789736311,293.408834353746L510.05460791155747,293.47540705546135L509.76404433921743,293.4144279496386L509.47774480253065,293.29246831318505L508.95425828265616,292.9283203795517L508.32653131976895,292.2051095880365L507.944443267882,291.85998811426407L507.69880435688356,291.85998811426407L507.3166401615026,292.04075919242587L506.7894987539248,293.06926808858725L506.67528351322653,293.17481672821623L506.49786917267284,293.24056611717833L506.1840056912297,293.2570721532211L506.04748040684717,293.15840222001316L505.87014220978654,292.55030755284224L505.78821181045805,292.4352126862036L505.6653923549584,292.38596440554556L505.37878824429663,292.38596440554556L505.1058899625177,292.5338917351005L504.8875104222998,293.0104866914735L504.7726860336488,293.6885092533107L504.2063307267654,295.18849662137836L503.4315706773532,296.4588602830586L502.89902308171713,297.03218904162577L502.65254659228594,297.2422615980654L502.33297234880865,297.4271244564984L499.4817030799795,297.4829399014084L498.25533596884,297.4322569277974L496.90759612858255,297.0312724823575L496.23266019953917,296.5947031187093L495.7749616583096,296.0405925535797L495.48645396030133,295.38138368662703L495.590846690302,294.66738443172153L495.7370421983969,294.3230132972685L495.88544586781336,294.15705694427015L496.3535760676941,292.70786096897154L496.3927899670016,290.83058644642415L495.851029008616,289.89150503871133L495.6753659684191,289.6793085800041L493.6858126189227,288.482350336883L493.0497860152136,288.27461180503315L492.5851584160455,288.23928469459224L491.1985092504565,288.79027768799006L490.7335770773152,288.9634126812721L490.1666126224809,289.4381150392901L489.3653546372261,289.92324685877793L488.7337443561564,290.22983318389606L488.47021172411405,290.29083710844134L488.22137478637796,290.30762457112405L486.3578389191189,289.96948326794063L486.00019292874185,289.81407647484366L485.86214477448266,289.68169387266516L485.3264752956002,288.778258105242L485.26358076972156,288.4021551090127L485.2739362848779,288.18560553291036L485.3366785237695,288.0132791691567L485.418228205629,287.93546495489045L485.69006047849416,287.4540640474047L485.8945819028404,285.2805083987696L485.83595141261503,285.12702785226065L484.3516862879751,283.7922992227168L482.4719318565376,282.5836033332848L480.76388100361964,281.82775192959343L480.36191949985005,281.70561137364166L479.57893595310634,281.6549178898017L478.3415280353656,282.0923220223008L477.9541860824047,282.3593625036724L477.58785973373506,282.9441014997328L477.1128766194106,284.2290327774381L476.692183816167,284.994565841283L476.1524787321132,285.6675009822616L475.50396459542026,286.2752132173705L474.972635295685,286.67482181397736L474.8617703687123,286.70226317952165L474.6462081377649,286.68546797392355L474.4997080556941,286.60782409526746L473.39722640896616,286.6419654702736L472.65018259129647,286.8854478868943L472.6583299451322,287.21124174221495L472.87358760210464,287.7284460096198L472.9067100219072,288.31480193397465L472.84389163952346,288.4639990987357L472.57388681050907,288.7349507531094L472.4462703149002,288.80000344371547L471.8960574287021,288.7220135526586L471.05505253968295,289.07268668946335L471.31218911824544,289.59811645367836L471.36221539367125,290.11094296538386L471.29102122696895,290.4512797458033L470.9834776555117,290.90085019124217L469.6950535969236,291.40478602601524L469.55076167617335,291.8586123670675L469.40228186326294,292.1358663989895L467.20097345750946,293.9237035262622L464.8076311603927,294.6826955762681L464.37498382862213,294.71863539079095L463.92269147545085,294.60540607972825L462.44923872693016,293.8949120921902L461.78458216955096,293.3863682316214L459.4031182574672,291.94904430168253L459.24633880373403,291.88603554890915L458.9472471600884,291.89025449143355L458.6629273542394,291.97848489873786L458.30116961519525,292.02058200867714L457.75118515947906,291.95133718704756L457.0400810708834,291.6531647374104L456.55268656707085,291.2667434888908L456.2724023663941,290.96533450879906L455.82239431803646,290.2983593639333L455.7617079534775,290.12617128872216L455.7636876843162,289.97700583246797L455.83891745619076,289.6743545083068L456.1105212985749,288.99543351858574L456.2004467647521,288.8902872402414L456.3406269368379,288.8901954889443L456.6314950831538,289.30627655165654L456.88048430787876,289.4911433936427L457.2925728963228,289.36279213932585L457.5854207734774,289.09158699274167L457.8488772620258,288.71540731438563L458.11233375057327,287.8052528803414L458.1896955402726,287.3364163896035L458.13517679871256,286.6973989980088L458.05355097335996,286.57542636223707L457.97405716583216,286.5376135407837L457.3714575558997,286.71648859865354L457.17896680357444,286.72071033096154L456.78134547895115,286.6346232516803L456.6809122106297,286.56321981608835L456.5615192123505,286.3446000989961L456.5530672845398,286.1111970673619L456.66812010367084,285.95562176796284L457.19541379823477,285.6926511651036L457.605522655841,285.2762858881879L457.8669994135489,284.67281057570335L458.7020651100529,281.9280343253704L458.7188166786882,281.7955180287054L458.6622420627955,281.7135092418357L458.5785603631093,281.6840299488581L458.1890102488296,281.77026345493186L457.9482445214335,281.76824308549794L457.7597893742786,281.70303997296924L457.4016865229387,281.391802397874L456.9972122838735,280.8136518522665L456.74365444952036,280.3632249769089L456.5530672845398,280.24547043288703L456.2431632647731,280.367541997397L455.8957205025654,280.6833209746901L455.54683101397404,280.87858686095115L454.15500409080687,281.23301043117044L453.1028532934806,281.4313850859471L452.47946650974154,281.4724369888463L451.4557172356026,281.46334497527914L450.38361684289976,281.2443069011006L448.27885838728434,280.6407953476082L448.0945149887957,280.5629994860319L447.8704246865427,280.3589079540343L446.6967488731116,278.17933293250053L446.554741257175,277.9863883165672L446.554741257175,277.7517244762389L446.66591075812266,277.53377663381843L446.8187307501803,277.4332539480456L447.1243707342919,277.34936153684066L447.17987934127177,277.28237560067873L447.2354640917465,277.0979545550895L447.26325646698297,276.7626407359803L447.0409936085807,276.39376967981707L445.8614547461284,275.14008407037136L445.59929269697477,274.70026750569286L445.4334521674782,274.2349632584328L445.37017692413156,273.3948265584618L445.4936816710742,273.0998976821629L446.64405757540226,271.8378656903674L447.0233283180196,271.27739754891854L447.3438924269167,270.6433164181185L447.5492514296957,270.11660814132347L447.6833401222766,269.6509377859902L447.75224998416525,269.0778021401661L447.71653868557223,268.89659013767186L446.82466994269544,267.36495004374046L446.4342061064899,266.8404119226657L446.251690151852,266.69503287454063L445.86762236912455,266.63835271128755L445.1921534356261,266.6555592331206L444.6257219852505,267.02434012508775L444.17236362316544,267.53405336690275L443.71672095626764,268.3282745474635L442.8334564281895,269.5815861120982L442.6006096241499,269.7900991600054L441.70912159874024,270.36916033546277L440.00845666472105,270.22366331370495L439.35209974816644,270.12893243724784L439.07524200471016,270.0468007533277L438.1042601717745,269.665562264262L437.5608240565243,269.3646051963865L437.43275069995343,269.1666588683697L436.23493739898913,268.6277998870678L435.7064254085244,268.8472850244261L435.05821584580553,268.9609806730123L433.24188894470353,268.84424943820613L432.2078602989013,268.6354350566339L431.7275471400135,268.4920214025251L430.3157706214697,267.4025799915862L430.0241410402168,267.0990510881511L429.805989930479,266.9789795471024L426.868526226669,266.4191732544873L426.6042321596906,266.5036436513924L425.5577159809054,267.12352521298044L425.318396979892,267.41214845782633L424.2478194570658,269.0552658520278L424.0554809917285,269.62739139841324L424.09149686429555,269.6695173071198L424.2692157788242,269.70465271584317L424.2517789187441,271.2524766990746L424.1460917493496,271.67483293586156L423.03066570867577,273.0447351806838L422.7727676951754,273.2327457690126L422.60662259170385,273.28248277398643L422.4346905827042,273.23201028411677L422.2080114016617,273.07001804238416L421.9605450468134,273.00345498637216L421.6828497249253,272.99435308779266L421.07636679680854,273.1148834275473L420.86956106764865,273.2221731669306L420.79981362732815,273.3133728795915L420.65811058536656,273.5757499657989L420.6429580301001,273.8029095306647L420.59765265129045,273.9313331105923L420.39549167525,274.112244052018L418.41332424465327,274.9572667840698L417.8822995188939,275.14100320124226L417.5557962174789,275.110855652134L416.19633027917644,274.2125338250644L414.3675158450924,272.1356927947154L414.18393388154163,271.6867869481689L413.7540277155458,270.9971023574403L412.63776409644106,269.8943076001401L412.05328663803357,269.0738467963606L411.93160933494073,268.6186928677789L410.9980901009558,267.52494506620087L410.64135783250276,267.1687929400032L408.91647926745463,266.10060669829863L408.5975141719273,266.1302370675703L408.22631463965354,266.3812624945863L407.99971160210407,266.46987400593935L407.62630390851064,266.482756176832L407.2506880535948,266.4112598587162L406.17980595679546,266.0042612071984L405.6092627577518,265.7361991273806L405.2399668128237,265.7444813074517L405.04884664338533,265.8666884492791L404.66264684283215,266.3134459408557L402.0420162167238,268.6230164035187L401.551195255689,268.58934795528785L400.05984878612526,268.36617581167957L399.95073515951117,268.3199031268132L398.6753316383638,268.38356249484696L398.5851777417038,268.43415844158835L398.48246016856865,268.6028705462768L398.45108904912195,268.8219884363898L398.281365201442,269.15295329018636L398.0906257494744,269.3244092540217L397.5328746573905,269.4432488305456L396.9430671544169,269.4069164902121L396.74387577463585,269.19728936853835L396.75659173810163,269.016080150609L396.6749659127472,268.69357248742745L396.5806241239288,268.56506242670866L396.29333472182225,268.3267106563794L394.27972002828574,267.64960825518074L393.1531770375168,266.53032800857136L392.6853514116101,266.29633067907116L391.30250942071143,265.9549377426829L389.43927812742913,266.0039851439037L389.30701687869896,266.05248011235335L389.2630059392832,266.18747305098987L389.22348746600073,266.8219176504417L389.0935866655791,267.08129349820456L388.90893869311367,267.1550838391263L388.48512400662366,267.10687177551745L388.0926042960855,266.7424193820384L387.97069856251164,266.5527796036308L387.96437865252574,266.42635051345087L388.17194581662443,266.11210918426195L388.24945989331354,265.87598273908543L388.22418025337174,265.69055495434486L388.11917837542114,265.5472709995338L385.3454993267733,264.5427366896838L384.6614261784762,264.1440160506936L384.48088995467697,263.99637745329846L384.29624198221154,263.76230377408365L383.9667690845399,263.2857583974146L383.9143062173125,263.14454733073126L382.99487352968026,262.1321526150723L382.2200373367723,261.39613415467466L382.0588415603979,261.3068201848132L381.6048740503629,261.19586686254297L381.428525718723,261.27183092666246L381.3130921821221,261.43001794847305L381.32999603774533,261.88356774726117L381.3006807926331,262.04174229931687L381.00889892439227,262.3497038752553L380.8032353476383,262.351913420885L380.4126953679388,262.1432006466139L380.22576309066153,261.89231438702427L380.06601404066805,261.5295507370638L379.8620256207787,260.8525920961674L379.4104947025444,260.51740572630115L379.13957615160507,260.4796503100879L378.38507027154355,260.8470671635023L378.1816148561102,261.1396069368907L378.22098104240376,261.66296502556906L378.0021446412229,261.85953745463576L377.4474392888915,262.1748715832059L375.6810625197231,261.83513880553346L375.5907563360761,261.8773069885333L375.4731146381555,262.04183436738185L375.32402567729605,262.3939867322433L375.13298165135166,262.6364792281024L374.7278221208426,262.63638716708783L374.0202967764553,262.4191201332769L373.96577803489345,262.3558721885688L373.9384425206199,262.2018470173948L373.8482124804659,262.0331799643054L373.3821381549178,261.69776837577L372.6577850983995,261.43839679857774L372.3869426909532,261.4110504082191L371.42327063342236,261.6137981219654L370.16180137164156,262.1583916643067L369.36640643540795,262.31066846539534L368.80576189056046,262.1949420517003L368.5601991230551,262.0661402988799L368.4008307905315,261.79186554109265L368.4261104304733,261.6104834880425L368.53750836190375,261.34899123889863L368.73281642349957,261.2036014194423L368.8021831463511,261.060142549818L368.7309889796479,260.8154828895631L368.65751050813196,260.7436581144584L368.4979898886204,260.6845403006573L367.91846175731007,260.7074692258461L367.4794945155545,261.11225949344544L366.33498166024947,261.65394190929555L364.01298581682204,261.15378705480407L363.8155457373996,260.9344527207936L363.7714586544889,260.7382251877534L363.8176777552253,260.4281737270394L363.9730104825767,259.9682765363368L363.96463469825903,259.74043590897236L363.88902420891463,259.49361635896594L363.55292682728214,258.78258478974976L363.4310972372032,258.39222652401213L363.44838181029536,256.8601705223823L363.62777588168865,255.80106835774404L363.5489673656057,255.02565296357898L363.4990933771669,254.9681502635276L363.19741285473174,254.99680951515165L362.9340325096782,254.9254837214139L362.638595753735,254.77997337927582L362.4725267937565,254.51825062044918L362.32739729457444,253.97570065923537L362.1882069879084,252.27601150553573L362.33105218227684,251.97198219944494L362.47389737664525,250.96107723224804L362.39836303079574,249.91278647711215L362.21417191929504,249.53793433980627L361.89436924533493,249.43179209457958L361.7090359814265,249.44497926424674L361.5410634341042,249.570117929994L361.2229359170078,249.59722950375726L360.93046875732216,249.52234968783478L360.731581951517,249.35248416637114L360.68071809766025,249.19377364904085L360.6062497607227,248.33072242892104L360.3792660057052,247.47679899641253L359.94433436912004,246.55885061651588L359.4856459624707,246.25293584698102L359.2999319810924,246.33633480161552L359.04759244264005,246.58311294025407L358.74499819827906,246.56198719497297L357.7867323288083,245.734439849909L357.509189293909,245.42996868901946L357.47766588747527,245.27357656416962L357.58289619590687,245.1849068202364L358.30245221231417,245.13646558328128L358.55502018124935,245.00147440013052L358.72337344604057,244.84507359943245L358.545121527055,243.71409543988239L358.3284171437008,243.56182153102736L356.36734146088565,242.6774660445335L356.0074873091871,242.61821005171805L355.66864876177806,242.72389215100338L354.9699560626714,243.11282673532924L354.35326990638623,243.27978386203995L354.20174435372337,243.27138533107563L354.1070979909309,243.21850206357885L353.75561962355005,242.70266354849628L353.41662878915395,241.9711640779824L353.0082712319054,241.49549069275008L352.4524237271671,241.17008108321897L351.7618022384013,240.61412970917263L351.2816413665005,240.1468669229621L351.25202154741237,239.89101909260035L351.2772250438602,239.74079340603703L351.424486560868,239.453075809683L351.43705023734674,239.25002345886287L351.1231106124096,238.88010170519328L350.2996187269637,238.61820927549525L349.8614129201451,238.60472656128195L349.4315067541511,238.78101580587963L348.36968573311333,240.15102172568004L348.2132869968482,241.82162505188217L348.2215104941779,242.31223144801152L348.2530339006107,242.44117775611403L348.44864653618333,242.6273476877518L348.6334467956358,243.51733852542156L348.1947841278543,246.07884685405452L348.0158469174248,246.3364270565953L347.760233208739,246.4838491112223L347.43982138682895,246.5646625108884L347.3119003172442,246.54888735884606L346.42985408506775,245.83961800780935L345.6255503600596,246.49003007460487L344.88200914310437,246.4246223158866L344.557561716023,245.8923910703811L343.97681528881185,245.12105659278996L342.5817903389052,244.36265637151473L342.080918436689,244.37336067669048L341.34445856465754,244.22571377899658L341.10026638004183,244.06523685559796L340.82021060984516,243.5981829676516L340.59276999386475,243.32352990856225L340.3807865071258,243.15029780326768L339.2839394789398,242.74170567240435L339.0293156356729,242.69934080542998L338.5704749420347,242.91051674393657L338.1032584640798,242.98010754903135L336.62181064870856,242.86353798102618L336.1082989265233,242.68586522166106L335.6348386820764,242.4385933129688L335.06437162652765,242.33715323598517L334.7087053669893,242.34979870503503L334.27522045678506,242.50006590469684L333.93866621419056,243.32888278330984L333.87577168831194,244.21030297135485L333.93478289600625,244.84857996477103L333.8654161731547,245.05997394481983L333.7014030875098,245.34111620651447L333.0368988171185,246.1465639713815L332.75493945957805,246.37249867028913L330.9144750709429,246.47499279685962L330.40370451453236,246.25081395917914L328.97548100132826,245.89303689234112L328.63039868742817,246.20357874075216L328.2368891114702,246.39999047762558L327.98234141169723,246.46549069828734L327.7320577475775,246.41890257018258L327.32202503346525,246.09333135547877L326.79617806528404,245.9009712720117L325.41196549149663,245.7868445847589L324.5409600659186,245.1868444633942L324.17691802206264,244.87413947454706L324.0127526494298,244.54232063182144L324.0588956066731,244.2379870349414L323.99364063248686,243.96741719847296L323.89259821621454,243.77721901617087L323.59997876954185,243.45605861251033L322.83176706059385,242.9996740815036L322.0277679095616,242.67451248557018L321.0119375587783,242.07214743559052L320.0231381482927,241.22168596240817L319.99161474186167,241.09687356947916L320.2022276457101,240.78187947019296L320.20649168136333,240.6740473513014L320.14763276065696,240.57673864891785L319.3752331595506,239.9547279347812L318.82372583395954,239.94189387701545L318.0091427372872,239.06192517408226L316.4383786036906,237.00150068752146L316.10136750013226,236.19121787050017L316.1434748522033,235.92664743673276L315.5998864499661,235.02534001464664L315.0227949104574,234.79694770989954L313.4875897884658,233.73204385799772L312.2778981024667,232.25137487200936L312.01870564957335,231.83721344502737L311.95040493563374,231.5363524610707L311.86291606125815,231.3751489868796L310.89254337627244,230.2702966712468L310.38900645177364,229.79214371689523L310.21791202120676,229.67093665080347L309.99435472340974,229.64560404021995L308.7130120097445,228.70518739891986L308.25386674213223,228.3096066416333L308.1465044158758,227.91206353970483L307.68027780333887,227.71212830246486L306.432590513934,227.47547298291556L305.7589490242872,227.5751668895805L305.59524051261724,227.72969913763927L305.5315845517998,227.94748168204205L305.53249827372565,228.08249451402025L305.42917155263876,228.21547058847136L304.918248709243,228.7173004670417L304.46542335161575,229.05618124186776L304.22123116699913,229.13579063016823L303.3782465471413,229.25034903544156L302.27051099934033,229.21059126731507L302.27051099934033,211.99816119812795L302.27020642536627,171.46513992366863L302.2696734209085,130.69785573813078L302.2691404164525,89.69345917189275L302.2686074119956,47.754088346950994L295.4450082151234,47.76052946306663L288.5007215805772,47.76062418531774L278.6460783260127,47.75977168499321L278.61752451583743,47.75541445955514L278.60023994274525,47.76081362982177L277.6176081552585,47.756266960388984L276.83401546056484,47.778905557360304L276.83226416020716,47.78079999745114L275.50904252495275,47.7757797301374L275.50828109001486,47.77445362121534L273.472204065808,47.7784319472612L273.4690060390667,47.77161195843473L270.8103798095517,47.776158618355566L270.80398375607274,47.77852666928129L270.22019158910916,47.774358899140225L270.2181357147765,47.778242503211914L269.25636724459036,47.77739000493284L268.7153677211436,47.77682167269222L268.7152915776496,47.77416945498817L262.5353333338653,47.79301912429628L261.9195608995069,47.786767480547496L261.90707336652395,47.79784993627027L261.85095561159324,47.79311384612811L261.85095561159324,47.78828303103501L260.714133249161,47.78809358724311L258.279901895874,47.77900027937494L258.279901895874,47.77672695064712L257.87900640101907,47.778621391303204L257.8668234420102,47.77483250950445L257.18061827588554,47.77994749947129L257.1802375584166,47.776158618355566L257.1758212357772,47.776158618355566L252.93234432631198,47.77672695064712L252.93242046980504,47.7736958445812L252.21514875820958,47.77322223414512L252.21514875820958,47.77483250950445L248.3421099460811,47.77123306997919L248.34226223306905,47.76820196164181L247.14414435812796,47.767728350851485L247.144068214634,47.765644463010176L244.29257051532477,47.765644463010176L244.29257051532477,47.762045018977915L241.16497650749534,47.761760852267344L241.16322520713766,47.761760852267344L240.9147689868687,47.76052946306663L240.91339840398086,47.756740571919636L239.54068349775662,47.762045018977915L239.5393129148688,47.762045018977915L237.51359140581644,47.75427779162419L236.8422342209842,47.75550918187537L234.98258167191125,47.75598279345468L234.9754241834935,47.75598279345468L232.3607327499003,47.761760852267344L231.02479515118193,47.76356057457406L227.90062760057572,47.7642236300494L222.70436715319101,47.769433349554674L222.16473821263207,47.767254740030694L219.67195251261273,47.797471049170326L178.64895993650134,47.77057001513958L176.66534577952098,47.76630751829725L176.38041682572293,47.76630751829725L172.95571090508656,47.772464457383194L172.1463817094882,47.752193899961185L166.80712378074895,47.75105723153138L166.71765517553467,47.75172028813495L166.61280558457202,47.75257278939807L166.5083367110783,47.75342529055979L166.14657897203597,47.75636168269557L163.22358253204766,47.76990696023768L163.21848091796255,47.75863501773756L155.3239234807952,47.67603672564837L140.7180023566134,47.661070421806016L140.46033277359493,47.69517081646154L137.64203363758224,47.6949813702613L131.358139524762,47.65917595078736L130.94216761813368,47.69090827579976L73.68370700703144,47.68825602702873L73.67373220934314,45.20694125183854L73.70243830650543,37.989859682560564L73.69756512290223,36.61783978728408L73.67731095355248,31.112943546809674L73.70167687156754,26.91158562555802L73.71949444911752,8.826697913686985L73.69794584037209,8.634904483786613L73.70160072807357,0.20041189422136085L74.86073313419001,0.35105086941894115L74.94974487844229,0.34656988178267056L75.4213776790375,0.3486673657025676L85.90054986974701,0.24865484344627475L87.98482572553075,0.13567430966077154L88.58285672583406,0.20851596939382944L90.72957024653351,0.2825963307436723L92.15413887203522,0.20851596939382944L93.5094930616724,0.4306594433551254L96.85356302237415,0.6728166775751561L122.95364910961598,0.727539278574568L122.95966444562691,0.7341174031503215L130.15514846621772,0.7453669356955288L134.15062601637783,0.8080970598393833L135.98149632479544,0.8211578228929284L145.8624852282137,0.8672993083628171L146.79623289268056,0.8697779748904395L147.86475454117408,0.8657739746918196L149.9784979290589,0.8517599565866476L149.9784979290589,0.85395262787506L157.4410933258996,0.8107664147860305L180.34863500510255,0.6779648144329258L180.43977876717963,0.6724353339568552L183.87819051669976,0.6475526196327337L186.63252911792188,0.6349682258478424L189.20161059872862,0.6287713572419307L194.5560972262274,0.5949268275649047L194.64267237867807,0.5909226755743475L197.36008138540728,0.5760500916758247L198.76919288166664,0.5695671609387318L198.91211421952812,0.5658490068722131L209.94439274920114,0.49215289304856924L210.05274494087826,0.4845258268469479L221.07405880744318,0.40854074165372367L222.07557418139186,0.4041551289860763L225.19349796550887,0.3842291597734402L226.42237781194308,0.3968139888083897L230.30082281213254,0.38651731213076346L233.4210309010632,0.34752328364129426L233.44493995811627,0.3299806694126346L234.40541398890764,0.3434236547668661L237.14855949654157,0.34132616933266036L240.29762596962064,0.2975648575093146L240.91903302252194,0.2969928124684884L244.01289546259704,0.28879349525414L244.666968074338,0.2716321036255067L246.37083103509667,0.30004371883251224L250.86063214700425,0.24007410520016492L254.07579117270325,0.2164293517007536L254.3466335801504,0.20794391732306394L257.2672695718302,0.17228591598814091L257.2737417688022,0.17447879279006884L260.2163070866982,0.1402507705647622L260.2989227774715,0.15121519639251346L286.9432064148996,0.011918083961973025L287.5464151727838,0.006960163413623377L287.65172162470844,0.016208589389862027L288.0190378387988,0.011822739367289614L293.48804428097174,4.547473508864641e-13L301.8650468948563,0.04576533556291906L302.1043658958697,0.04767221827478352L302.2016011374526,0.04833962710245032L302.66493429722414,0.054823023973312957L311.78631570649486,0.0521533906694458L318.59301104774386,0.12156353702221168L319.44581817830294,0.13014441554832956L319.48853467832487,0.13052578769293177L328.3666376249057,0.19154507218308936L329.05238593006743,0.24808279454646254L330.82295059139506,0.24169491209340777L335.9497681724315,0.25532874394866667L339.71841425456114,0.24293435240906547L340.05961325027965,0.24388776789692201L340.1683461594257,0.24417379251690363L340.3411918903503,0.24493652478577133L340.3411918903503,0.2507523556960223L341.5642086877633,0.245985281526373L343.7061251683526,0.26076320124820995L347.45147134138006,0.2504663313329729L349.8594331893073,0.1934519165479287L357.31273907990453,0.2504663313329729L359.5502917887061,0.25180111159261287L368.58631634142876,0.26543492444398L368.9339875341184,0.26562560695720094L374.6590645459419,0.2845984921659692L376.2091937927189,0.2489408678802647L378.8716271969233,0.25866569189793154L387.5360714999024,0.2762084786995729L387.5795494348613,0.2805941687674931L388.38362472938843,0.2784013240666354L393.8657278524952,0.28383576407031796L394.1505806628011,0.28402644609968775L394.28573536429485,0.28135689720511436L396.5958528226902,0.2651489006607335L399.88007399726484,0.28850747239403063L400.1810692282552,0.29994837802951224L413.09805151646106,0.3059548462560997L422.59032788403147,0.3518135904423616L422.73812240549705,0.349716107434233L423.4445055974775,0.3520996108045438L427.62615398997787,0.40472716557405874L428.2265454385897,0.40463182614621473L436.4862870720217,0.4036784317981983L437.87308852459864,0.41778865531478004L438.7320632781548,0.4012949453854162L441.0637293452937,0.4001508716282842L443.35899882239573,0.3855639154035089L446.05958011699477,0.3883287655685308L451.1340109742978,0.3698328512846274L451.54914530249425,0.3677353734906319L452.0010569381966,0.3661145947799014L469.64023028138763,0.3330315618904933L471.0724132562691,0.32025594106198696L471.0767534354154,0.3093871115838738L472.19819481210016,0.329503967344408L477.65006896816885,0.3222580920814835L481.2012492320073,0.305287461145781L482.21616586086475,0.2970881533128704L484.54524304921415,0.3359871127563565L487.74425965422597,0.3332222426288354L489.117735995389,0.32978998858880004L489.16326980468057,0.3334129233612657L490.58014793730763,0.329503967344408L494.7247144483281,0.3322688388921051L495.53038875622315,0.3357010917588923L501.42046871911134,0.3206373032035117L502.37256696558416,0.3189211734070341L519.4820100224097,0.29508599533892266L521.3950391606368,0.30223655698864604L521.5710829183026,0.3043340537342374L522.7900641105443,0.3037620092263751L523.0660081320748,0.30585950553222574L527.7007103126834,0.30566882407401863L528.4394544895304,0.312438012731036L532.5907977714978,0.30385734998117186L533.2144891292128,0.299280992363947L535.7065895377873,0.298994969915384L536.6756677833773,0.29127235957776065L537.0428317104816,0.2883167904801667L538.0770887867639,0.29308383681245687L538.1857455524159,0.2908909958900949L540.1497146879956,0.28345439999293376L540.8177215591013,0.2849798561833268L544.2233154627938,0.2883167904801667L546.3242667437198,0.31901651395992303L546.5632811707565,0.28850747239403063L549.7782117659744,0.306812912740952L550.4306092208517,0.2828823538357028L550.786960771834,0.2784013240666354L552.7749151079606,0.27983144025029105L553.1595158951441,0.28631463008468927L568.7798206437265,0.339705384717945L575.2425758234804,0.2948953136005912L576.8522492824095,0.2845984921659692L585.6234467636959,0.27973609917944486L585.8298717753869,0.27983144025029105L590.3068807803365,0.298994969915384L591.642666092067,0.3029992831470736L592.8046158074521,0.2855519021713917L595.1461043852933,0.2903189503226713L595.2704467106678,0.3008064452224062L595.4741305565813,0.3018551938771452L595.669514761672,0.30357132771587203L595.9692155532675,0.2928931550213747L596.1212741103873,0.3082430233221203L606.8118206398849,0.31901651395992303L611.6711461272034,0.2801174634550989L612.3465389172079,0.28231030763708986L613.7127054829652,0.27363426807596625L616.2276489396809,0.2766851842698088L616.3718647169371,0.27687586648971774L616.4718411242966,0.2770665487050792L617.008272038116,0.28078485088508387L621.4945705493101,0.29384656393631303L623.1101832007544,0.2761131375809782L624.4840402593845,0.28612394811443664L625.1551690137367,0.27983144025029105L626.5255234716533,0.28240564867337525L628.3418503727544,0.28135689720511436L628.5829968176176,0.2790687116525987L628.9261755441748,0.27029732702021647L629.9709404226023,0.2851705381822285L630.748137063817,0.2723948330053645L632.4347915949775,0.2749690440687118L635.0405742397961,0.27515972633500496L635.4768003157751,0.27134608008827854L636.1176239595952,0.2708693741674324L636.4065123750715,0.2750643852027679L639.3412349131049,0.2761131375809782L642.3258314395771,0.2740156326713077L644.0636543985711,0.2832637179453741L651.9745826869066,0.28269167177677446L657.797504088262,0.26943925621344533L658.0170257808868,0.27077403297880664L658.0375083807194,0.2708693741674324L658.4557645921614,0.2715367624496139L668.1456333261431,0.25180111159261287L669.5166730755027,0.25609147504474095L671.186423751039,0.25418464715676237L671.2005102973926,0.25427998856366685L677.4197585839765,0.25714023016826104L679.2479638701107,0.2503709898755915L680.1344264249283,0.2582843264940493L680.7080153637226,0.25637749918541886L682.146442105096,0.25466135417491387L682.4367772469541,0.25666352331336384L683.3753980950241,0.25523340255585936L694.1950839900082,0.317681746076687L694.4536672949516,0.31749106493225554L695.129440802426,0.32159070846910254L695.8639209436187,0.3235928591211632L699.9774209091674,0.32816920139430295L702.8657720594783,0.3355104110855791L703.0287952797034,0.3376078982050785L704.8876863938385,0.32530898781215L705.7232089513045,0.3234021781299816L705.8802168355196,0.32426024255028096L711.5537447020406,0.3369405160055976L712.0977138217459,0.38813808628219704L712.1000742700544,0.5718552548009939L712.1014448529422,0.7152410296612288L712.1018255704121,4.960806367561418L712.0955056604253,5.3032330351338715L712.091165481279,6.158752716735307L712.0813429705795,6.91482243439259L712.0880435980334,7.239726282296942L712.0823328359993,8.645856082086993L712.0853024322569,10.021340803893054L712.0537028823301,11.636262710796018L712.0748707736066,14.752562877999026L712.0804292486537,22.432925072542275L712.0939066470573,28.621631888799584L712.1019017139051,31.659385895672585L712.1178918476044,37.051935856595264L712.114084672914,37.59764989507812L712.114998394839,38.330927572145356L712.1179679910974,40.35917541992194L712.1116480811124,44.22189424714543L712.1138562424321,44.30652156942142L712.1040337317318,44.47804763468821L712.1127140900244,46.03969783099183L712.1131709509882,46.30497759066657Z" class="state" fill="coral" stroke="#111" stroke-width="0.5"></path></g></svg>